<svg xmlns="http://www.w3.org/2000/svg" width="20" height="20" viewBox="0 0 20 20"><path fill-rule="evenodd" d="M8.333 2.708a.86.86 0 0 0-.597.24.77.77 0 0 0-.236.552v.792h5V3.5a.77.77 0 0 0-.237-.552.86.86 0 0 0-.597-.24zm5.833 1.584V3.5c0-.659-.268-1.286-.74-1.746a2.52 2.52 0 0 0-1.76-.712H8.333c-.656 0-1.29.254-1.76.712a2.44 2.44 0 0 0-.74 1.746v.792H2.5a.833.833 0 1 0 0 1.666h.833V16.5c0 .659.269 1.286.74 1.746.47.458 1.104.712 1.76.712h8.334c.656 0 1.29-.254 1.76-.712.47-.46.74-1.087.74-1.746V5.958h.833a.833.833 0 1 0 0-1.666zm-.833 1.666H5V16.5a.77.77 0 0 0 .236.552c.155.151.37.24.597.24h8.334a.86.86 0 0 0 .596-.24A.77.77 0 0 0 15 16.5V5.958z" clip-rule="evenodd"/></svg>